# xmcd
#
# Track frame offsets:
#	150
#	17286
#	33971
#	58269
#	71096
#	86417
#	107596
#	120292
#	142960
#	160145
#	182582
#	185543
#	226959
#	251159
#	270479
#
# Disc length: 3866
#
# Revision: 2
# Processed by: cddbd v1.5.1PL2 Copyright (c) Steve Scherf et al.
# Submitted via: freedbtool 1.11
# Normalized: r0:TRMNUM
#
DISCID=bd0f180f
DTITLE=Stevie Ray Vaughan - Texas Flood
DYEAR=1983
DGENRE=Blues
TTITLE0=Love Struck Baby
TTITLE1=Pride and Joy
TTITLE2=Texas Flood
TTITLE3=Tell Me
TTITLE4=Testify
TTITLE5=Rude Mood
TTITLE6=Mary Had A Little Lamb
TTITLE7=Dirty Pool
TTITLE8=I'm Crying
TTITLE9=Lenny
TTITLE10=SRV Speaks (previously unreleased)
TTITLE11=Tin Pan Alley (previously unreleased)
TTITLE12=Testify (previously unreleased, live)
TTITLE13=Mary Had A Little Lamb (previously unreleased
TTITLE14=Wham (previously unreleased, live)
EXTD=
EXTT0=
EXTT1=
EXTT2=
EXTT3=
EXTT4=
EXTT5=
EXTT6=
EXTT7=
EXTT8=
EXTT9=
EXTT10=
EXTT11=
EXTT12=
EXTT13=
EXTT14=
PLAYORDER=
